<svg xmlns="http://www.w3.org/2000/svg" width="512" height="512" viewBox="0 0 283.9 283.9"><style>.a{fill:#fff;}</style><g xmlns="http://www.w3.org/2000/svg"><path d="M266.4 0h-97.6c-9.6 0-17.5 7.9-17.5 17.5 0 9.6 7.9 17.5 17.5 17.5h55.4l-92.4 92.4c-3.3 3.3-5.1 7.7-5.1 12.4 0 4.7 1.8 9.1 5.1 12.4 3.3 3.3 7.7 5.1 12.4 5.1 4.7 0 9.1-1.8 12.4-5.1l92.4-92.4v55.4c0 9.6 7.9 17.5 17.5 17.5 9.6 0 17.5-7.9 17.5-17.5V17.5C283.9 7.9 276.1 0 266.4 0z" data-original="#000000" class="a"/><path d="M201.1 253.9H30V82.8h128.7l30-30H15c-8.3 0-15 6.7-15 15v201.1c0 8.3 6.7 15 15 15h201.1c8.3 0 15-6.7 15-15V95.2l-30 30V253.9z" data-original="#000000" class="a"/></g></svg>
